<?xml version="1.0" encoding="utf-8"?>
<!-- Generator: Adobe Illustrator 25.2.0, SVG Export Plug-In . SVG Version: 6.00 Build 0)  -->
<svg version="1.1" id="Layer_1" xmlns="http://www.w3.org/2000/svg" xmlns:xlink="http://www.w3.org/1999/xlink" x="0px" y="0px"
	 viewBox="0 0 12096 3456" style="enable-background:new 0 0 12096 3456;" xml:space="preserve">
<style type="text/css">
	.st0{fill-rule:evenodd;clip-rule:evenodd;fill:#1368F6;}
	.st1{fill:#FF6428;}
	.st2{fill:#1368F6;}
</style>
<g id="Logo-1000Width">
	<g id="LOGO_x40_2x-Copy" transform="translate(26.000000, 70.000000)">
		<g id="aa-_x28_1_x29_">
			<path id="Combined-Shape" class="st0" d="M1698.38,2063.26c99.85-164.23,157.24-356.34,157.24-561.64
				c0-13.13-0.23-26.2-0.7-39.21C1844.69,890.1,1379.64,426.91,800.17,407.71c-19.03-0.95-38.19-1.43-57.47-1.43
				c-273.46,0-523.89,97.07-717.65,258.11C224.9,463,503.87,337.97,812.53,337.97c607.77,0,1100.46,484.78,1100.46,1082.77
				C1912.99,1661.3,1833.26,1883.53,1698.38,2063.26L1698.38,2063.26z"/>
			<path id="Shape" class="st1" d="M409.63,1345c2.83,2.76,4.67,6.32,5.27,10.15h-5.27V1345z M614.98,1563.38H362.82
				c-19.14-50.3-38.28-100.6-57.42-150.91h260.9v1.23h1.25c1.45,12.94,8.17,26.73,12.48,38.03c6.91,18.14,9.41,35.68,16.23,53.98
				C602.86,1523.45,612.12,1543.33,614.98,1563.38z M379.06,1608.78h248.41c5.46,27.7,18.51,56.19,27.46,82.2
				c17.85,51.9,31.05,102.62,48.68,154.58c16.11,47.48,35.95,98.15,47.44,148.45c1.76,7.69-5.33,19.75-7.49,25.76
				c-7.61,21.2-12.97,43.33-19.97,63.8c-20.69,60.46-35.91,122.25-56.17,181.58c-6.85,20.06-10.06,39.71-17.48,58.89h-1.25
				c-0.81-7.76-4.97-13.68-7.49-19.63c-7.53-17.78-12.89-35.95-19.97-52.76c-22.61-53.69-38.96-109.24-61.17-161.95
				c-16.32-38.74-26.17-77.75-42.44-116.55C467.61,1853.96,429.26,1728.53,379.06,1608.78z"/>
			<path id="Shape_3_copy_2" class="st1" d="M403.05,1347.51c0,0,118.04-143.44,342.07-154.11
				c218.01-5.93,402.29,139.88,402.29,139.88s-133.7-202.71-397.47-196.78C506.63,1143.62,413.89,1340.4,403.05,1347.51z
				 M287.42,1200.52c0,0,153.56-183.65,445.02-197.31c283.62-7.59,523.37,179.1,523.37,179.1s-173.92-259.54-517.1-251.95
				C422.18,939.46,301.52,1191.41,287.42,1200.52z M198.29,1022.7c0,0,183.36-219.04,531.36-235.33
				c338.65-9.05,624.92,213.61,624.92,213.61s-207.68-309.55-617.43-300.5C359.21,711.34,215.13,1011.84,198.29,1022.7z"/>
			<path id="Shape_1_copy" class="st0" d="M1011.95,1412.47h243.42v1.23c-3.81,4.46-3.68,9.89-6.24,15.95
				c-6.99,16.55-12.56,34.02-19.97,51.53c-20.82,49.2-37.46,100.71-58.67,150.91c-66.73,157.94-122.05,322.86-188.5,480.94
				c-23.31,55.48-41.95,112.36-64.91,166.86c-6.5,15.43-11.68,30.77-17.47,45.4c-2.08,6.13-4.16,12.27-6.24,18.4h-183.5v-2.45
				c4.7-6.42,4.62-14.9,7.49-23.31c6.76-19.78,12.82-40.37,19.97-61.34c23.28-68.2,43.78-137.94,67.41-207.35
				c47.07-138.24,88.7-278.92,136.06-418.37c16.68-49.1,31.68-99.39,48.68-149.68C996.78,1459.58,1008.36,1436.23,1011.95,1412.47z"
				/>
		</g>
		<path id="imaginnovate" class="st1" d="M2305.29,2342.65h-214.58v-836.37h214.58V2342.65z M2198,1157.65
			c72.68,0,117.67,49.8,119.41,115.06c0,63.54-46.72,113.35-121.14,113.35c-70.95,0-117.67-49.8-117.67-113.35
			C2078.59,1207.46,2127.05,1157.65,2198,1157.65z M2502.88,2342.65V1755.3c0-96.17-1.73-176.89-6.92-249.02h183.43l8.65,123.65
			h5.19c41.53-65.26,117.67-142.54,259.58-142.54c110.75,0,197.28,61.83,233.62,154.56h3.46c29.42-46.37,64.03-80.72,103.83-104.76
			c46.72-32.63,100.37-49.8,169.59-49.8c140.17,0,282.07,94.46,282.07,362.37v492.89h-207.66v-461.98
			c0-139.11-48.45-221.54-150.55-221.54c-72.68,0-126.33,51.52-148.82,111.63c-5.19,20.61-10.38,46.37-10.38,70.41v501.48h-207.66
			v-484.3c0-116.78-46.72-199.22-145.36-199.22c-79.6,0-133.25,61.83-152.28,120.22c-8.65,20.61-12.11,44.65-12.11,68.7v494.61
			H2502.88z M4593.66,1839.45v302.26c0,75.56,3.46,149.41,12.11,200.93h-192.09l-13.84-92.74h-5.19
			c-51.92,65.26-140.17,111.63-249.19,111.63c-169.59,0-264.77-121.93-264.77-249.02c0-211.24,188.63-317.72,500.12-316v-13.74
			c0-54.96-22.5-145.98-171.32-145.98c-83.06,0-169.59,25.76-226.7,61.83l-41.53-137.39c62.3-37.78,171.32-73.85,304.57-73.85
			C4515.78,1487.39,4593.66,1657.41,4593.66,1839.45z M4385.99,2048.97v-115.06c-150.55-3.43-294.19,29.2-294.19,156.28
			c0,82.43,53.65,120.22,121.14,120.22c84.79,0,147.09-54.96,166.13-115.06C4384.26,2079.89,4385.99,2062.71,4385.99,2048.97z
			 M5550.94,1746.71v474c0,175.17-36.34,300.54-124.6,379.54c-88.26,77.28-209.39,101.33-325.34,101.33
			c-107.29,0-221.51-22.33-294.19-66.98l46.72-159.72c53.65,30.91,143.63,63.54,245.73,63.54c138.44,0,242.27-72.13,242.27-252.46
			v-72.13h-3.46c-48.45,73.85-134.98,123.65-245.73,123.65c-209.39,0-358.22-171.74-358.22-408.74
			c0-274.78,179.97-441.37,382.44-441.37c128.06,0,204.2,61.83,244,130.52h3.46l8.65-111.63h185.16
			C5554.41,1562.95,5550.94,1631.65,5550.94,1746.71z M5338.09,1976.84v-135.67c0-18.89-1.73-39.5-6.92-56.67
			c-22.5-77.28-83.06-135.67-173.05-135.67c-119.41,0-207.66,103.04-207.66,273.06c0,142.54,72.68,257.61,205.93,257.61
			c79.6,0,148.82-51.52,173.05-127.09C5334.63,2030.08,5338.09,2000.89,5338.09,1976.84z"/>
		<path id="imaginnovate-copy" class="st2" d="M5959.07,2334.88h-215.1V1504h215.1V2334.88z M5851.52,1157.65
			c72.86,0,117.96,49.48,119.69,114.31c0,63.13-46.84,112.6-121.43,112.6c-71.12,0-117.96-49.48-117.96-112.6
			C5731.83,1207.13,5780.4,1157.65,5851.52,1157.65z M6157.15,2334.88v-583.5c0-95.54-1.73-175.73-6.94-247.39h187.35l10.41,124.55
			h5.2c36.43-64.83,128.37-143.32,268.88-143.32c147.45,0,300.1,93.84,300.1,356.58v493.07h-213.37V1865.7
			c0-119.43-45.1-209.85-161.33-209.85c-85,0-143.98,59.71-166.53,122.84c-6.94,18.77-8.67,44.36-8.67,68.25v487.95H6157.15z
			 M7118.48,2334.88v-583.5c0-95.54-1.74-175.73-6.94-247.39h187.35l10.41,124.55h5.2c36.43-64.83,128.37-143.32,268.88-143.32
			c147.45,0,300.1,93.84,300.1,356.58v493.07h-213.37V1865.7c0-119.43-45.1-209.85-161.33-209.85c-85,0-143.98,59.71-166.53,122.84
			c-6.94,18.77-8.67,44.36-8.67,68.25v487.95H7118.48z M8463.17,1485.23c251.53,0,419.79,174.03,419.79,426.53
			c0,305.4-218.57,441.89-433.67,441.89c-239.39,0-423.26-162.08-423.26-428.24C8026.03,1652.43,8208.18,1485.23,8463.17,1485.23z
			 M8457.97,1638.78c-150.92,0-211.63,143.32-211.63,281.51c0,160.38,79.8,281.51,209.9,281.51
			c121.43,0,206.43-117.72,206.43-284.92C8662.66,1787.22,8603.68,1638.78,8457.97,1638.78z M8917.98,1504h230.71l137.04,421.42
			c24.29,73.36,41.63,139.9,57.24,208.15h5.2c15.61-68.25,34.69-133.08,57.24-208.15L9539,1504h225.51l-322.65,830.89h-209.9
			L8917.98,1504z M10509,1834.99v300.28c0,75.07,3.47,148.43,12.14,199.62h-192.55l-13.88-92.13h-5.2
			c-52.04,64.83-140.51,110.9-249.79,110.9c-170,0-265.41-121.14-265.41-247.39c0-209.85,189.08-315.64,501.32-313.93v-13.65
			c0-54.6-22.55-145.02-171.73-145.02c-83.26,0-170,25.59-227.24,61.42l-41.63-136.49c62.45-37.54,171.73-73.36,305.3-73.36
			C10430.94,1485.23,10509,1654.14,10509,1834.99z M10300.84,2043.14v-114.31c-150.92-3.41-294.9,29-294.9,155.26
			c0,81.89,53.78,119.43,121.43,119.43c85,0,147.45-54.6,166.53-114.31C10299.1,2073.85,10300.84,2056.78,10300.84,2043.14z
			 M10729.62,1350.44l208.16-59.71V1504h202.96v156.96h-202.96v366.82c0,100.66,27.75,153.55,109.28,153.55
			c39.9,0,58.98-3.41,83.27-10.24l3.47,160.38c-31.22,11.94-86.73,22.18-154.39,22.18c-78.06,0-143.98-27.3-183.88-69.95
			c-45.1-47.77-65.92-122.84-65.92-232.03v-390.7h-121.43V1504h121.43V1350.44z M11987.59,1978.3h-565.51
			c5.2,150.14,124.9,214.97,260.2,214.97c98.88,0,170-13.65,234.18-37.54l31.22,145.02c-72.86,29-173.47,52.89-294.9,52.89
			c-274.08,0-435.41-167.2-435.41-421.42c0-230.33,142.24-447.01,412.85-447.01c275.81,0,364.28,221.8,364.28,404.35
			C11994.53,1928.82,11991.06,1959.54,11987.59,1978.3z M11422.08,1831.57h371.22c1.74-76.78-32.96-203.03-175.2-203.03
			C11486.26,1628.54,11430.75,1746.27,11422.08,1831.57z"/>
	</g>
</g>
</svg>
